<svg id="visual" viewBox="0 0 960 300" width="960" height="300" xmlns="http://www.w3.org/2000/svg" xmlns:xlink="http://www.w3.org/1999/xlink" version="1.1"><rect x="0" y="0" width="960" height="300" fill="#202731"></rect><path d="M0 190L22.8 192.3C45.7 194.7 91.3 199.3 137 198.7C182.7 198 228.3 192 274 194.3C319.7 196.7 365.3 207.3 411.2 212.3C457 217.3 503 216.7 548.8 210.2C594.7 203.7 640.3 191.3 686 187C731.7 182.7 777.3 186.3 823 191.3C868.7 196.3 914.3 202.7 937.2 205.8L960 209L960 301L937.2 301C914.3 301 868.7 301 823 301C777.3 301 731.7 301 686 301C640.3 301 594.7 301 548.8 301C503 301 457 301 411.2 301C365.3 301 319.7 301 274 301C228.3 301 182.7 301 137 301C91.3 301 45.7 301 22.8 301L0 301Z" fill="#202e43"></path><path d="M0 226L22.8 222.3C45.7 218.7 91.3 211.3 137 206.3C182.7 201.3 228.3 198.7 274 204.5C319.7 210.3 365.3 224.7 411.2 229.5C457 234.3 503 229.7 548.8 228C594.7 226.3 640.3 227.7 686 225.7C731.7 223.7 777.3 218.3 823 216.7C868.7 215 914.3 217 937.2 218L960 219L960 301L937.2 301C914.3 301 868.7 301 823 301C777.3 301 731.7 301 686 301C640.3 301 594.7 301 548.8 301C503 301 457 301 411.2 301C365.3 301 319.7 301 274 301C228.3 301 182.7 301 137 301C91.3 301 45.7 301 22.8 301L0 301Z" fill="#0a366d"></path><path d="M0 233L22.8 232.3C45.7 231.7 91.3 230.3 137 228.3C182.7 226.3 228.3 223.7 274 222.7C319.7 221.7 365.3 222.3 411.2 224.7C457 227 503 231 548.8 230.2C594.7 229.3 640.3 223.7 686 222.8C731.7 222 777.3 226 823 229.2C868.7 232.3 914.3 234.7 937.2 235.8L960 237L960 301L937.2 301C914.3 301 868.7 301 823 301C777.3 301 731.7 301 686 301C640.3 301 594.7 301 548.8 301C503 301 457 301 411.2 301C365.3 301 319.7 301 274 301C228.3 301 182.7 301 137 301C91.3 301 45.7 301 22.8 301L0 301Z" fill="#003b95"></path><path d="M0 254L22.8 252.8C45.7 251.7 91.3 249.3 137 250.7C182.7 252 228.3 257 274 259.7C319.7 262.3 365.3 262.7 411.2 259C457 255.3 503 247.7 548.8 247.7C594.7 247.7 640.3 255.3 686 255.7C731.7 256 777.3 249 823 248.7C868.7 248.3 914.3 254.7 937.2 257.8L960 261L960 301L937.2 301C914.3 301 868.7 301 823 301C777.3 301 731.7 301 686 301C640.3 301 594.7 301 548.8 301C503 301 457 301 411.2 301C365.3 301 319.7 301 274 301C228.3 301 182.7 301 137 301C91.3 301 45.7 301 22.8 301L0 301Z" fill="#0c3abb"></path><path d="M0 270L22.8 271.2C45.7 272.3 91.3 274.7 137 274.8C182.7 275 228.3 273 274 273.8C319.7 274.7 365.3 278.3 411.2 279C457 279.7 503 277.3 548.8 274.5C594.7 271.7 640.3 268.3 686 268.8C731.7 269.3 777.3 273.7 823 275.8C868.7 278 914.3 278 937.2 278L960 278L960 301L937.2 301C914.3 301 868.7 301 823 301C777.3 301 731.7 301 686 301C640.3 301 594.7 301 548.8 301C503 301 457 301 411.2 301C365.3 301 319.7 301 274 301C228.3 301 182.7 301 137 301C91.3 301 45.7 301 22.8 301L0 301Z" fill="#3c31dd"></path></svg>